<?xml version="1.0" standalone="no"?>
<!DOCTYPE svg PUBLIC "-//W3C//DTD SVG 20010904//EN"
 "http://www.w3.org/TR/2001/REC-SVG-20010904/DTD/svg10.dtd">
<svg version="1.0" xmlns="http://www.w3.org/2000/svg"
 width="1137.000000pt" height="1132.000000pt" viewBox="0 0 1137.000000 1132.000000"
 preserveAspectRatio="xMidYMid meet">
<metadata>
Created by potrace 1.16, written by Peter Selinger 2001-2019
</metadata>
<g transform="translate(0.000000,1132.000000) scale(0.100000,-0.100000)"
fill="#000000" stroke="none">
<path d="M2459 10805 c-110 -30 -224 -115 -292 -218 -80 -120 -103 -299 -57
-436 100 -300 441 -437 727 -294 79 39 173 135 213 216 l33 67 783 0 784 0 0
-340 0 -340 -1987 -2 -1988 -3 -41 -24 c-24 -13 -52 -41 -65 -65 l-24 -41 -3
-3250 c-2 -1787 0 -3273 3 -3302 7 -57 34 -104 78 -137 l28 -21 1912 -5 1912
-5 3 -512 2 -513 -869 0 c-746 0 -873 -2 -902 -15 -46 -20 -63 -34 -88 -75
-20 -34 -21 -45 -21 -416 0 -409 2 -425 52 -470 12 -12 37 -29 55 -38 29 -15
284 -16 2971 -16 2577 0 2944 2 2973 15 46 20 63 34 88 75 20 34 21 45 21 424
l0 389 -25 42 c-17 29 -38 49 -70 64 -45 21 -49 21 -915 21 l-870 0 2 512 3
513 1910 5 c1882 5 1910 5 1943 25 19 11 43 40 57 69 l25 50 -1 3275 c0 2482
-3 3283 -12 3306 -18 46 -39 71 -78 94 l-36 21 -1992 7 -1991 6 0 339 0 338
784 0 784 0 26 -54 c40 -82 100 -151 174 -199 37 -24 76 -47 87 -51 115 -43
248 -48 354 -12 93 31 159 75 225 147 63 70 102 147 122 237 18 85 17 131 -1
210 -45 190 -187 340 -368 388 -68 18 -209 18 -271 -1 -135 -41 -255 -137
-311 -250 -17 -33 -34 -63 -40 -67 -5 -4 -407 -8 -891 -8 -950 0 -922 1 -970
-52 -12 -12 -25 -30 -30 -38 -5 -8 -11 -220 -14 -470 l-5 -455 -682 -3 -683
-2 0 427 c0 264 -4 442 -10 465 -6 21 -22 51 -36 68 -53 63 -3 60 -979 62
l-889 3 -31 59 c-60 119 -185 220 -321 261 -60 18 -211 18 -275 0z m225 -349
c99 -58 113 -191 29 -267 -85 -77 -206 -59 -261 39 -83 149 85 314 232 228z
m6149 8 c67 -34 97 -83 97 -156 0 -113 -126 -199 -227 -156 -63 27 -113 96
-113 158 0 29 21 84 43 111 43 55 137 75 200 43z m-4183 -2197 l0 -842 -216
-215 c-118 -118 -224 -232 -235 -252 -21 -41 -25 -117 -8 -151 6 -12 62 -73
123 -136 98 -100 109 -115 91 -122 -11 -4 -87 -8 -168 -8 -152 -1 -172 -5
-216 -45 -36 -33 -45 -63 -51 -181 l-5 -110 -867 -3 -867 -2 -33 62 c-44 86
-146 186 -228 226 -88 42 -130 52 -232 52 -149 0 -280 -58 -378 -168 -83 -94
-120 -184 -127 -317 -9 -151 40 -278 148 -386 103 -102 219 -149 369 -149 185
0 357 106 448 278 l33 62 867 -2 867 -3 5 -110 c6 -128 22 -166 86 -202 36
-21 52 -23 196 -23 99 0 159 -4 163 -11 4 -5 -42 -61 -103 -122 -60 -62 -115
-122 -121 -134 -21 -42 -13 -115 18 -164 37 -57 506 -522 548 -543 37 -19 114
-21 146 -5 12 6 72 61 134 121 61 61 117 107 122 103 7 -4 11 -64 11 -163 0
-144 2 -160 23 -197 13 -22 40 -49 62 -62 40 -22 44 -23 425 -23 381 0 385 1
425 23 22 12 50 38 62 56 21 31 23 45 24 185 0 83 4 160 8 171 7 18 22 7 122
-91 63 -61 124 -117 136 -123 34 -17 110 -13 151 8 45 24 533 513 556 558 20
40 21 115 2 151 -8 15 -60 72 -115 127 -56 55 -101 108 -101 117 0 16 13 18
154 18 165 0 203 8 242 52 33 36 38 56 44 173 l5 110 870 0 869 0 30 -60 c18
-34 58 -88 96 -125 101 -102 216 -150 360 -150 144 0 258 48 360 150 103 102
150 216 150 362 0 182 -95 351 -250 440 -165 96 -379 91 -540 -12 -66 -42
-140 -125 -177 -197 l-29 -58 -870 0 -869 0 -3 105 c-3 111 -14 150 -54 186
-43 40 -63 44 -212 44 -148 0 -176 4 -176 24 0 6 45 56 101 111 55 55 107 112
115 127 23 43 18 122 -10 166 -13 20 -119 131 -235 247 l-211 210 0 842 0 843
1880 0 1880 0 0 -2740 0 -2740 -4787 2 -4788 3 -3 2738 -2 2737 1880 0 1880 0
0 -843z m1718 9 l2 -828 -72 -74 c-39 -41 -77 -74 -84 -74 -20 0 -24 26 -24
176 0 154 -6 180 -52 219 -53 45 -50 45 -456 45 -418 0 -423 -1 -468 -52 -41
-49 -44 -64 -44 -223 0 -194 -3 -196 -101 -99 l-69 68 0 838 0 838 683 -2 682
-3 3 -829z m-518 -1006 c0 -187 21 -222 163 -276 40 -15 100 -40 135 -56 34
-15 76 -28 92 -28 52 0 113 38 195 120 44 44 84 80 89 80 16 0 226 -213 226
-230 0 -8 -34 -49 -76 -90 -127 -126 -138 -170 -75 -303 21 -45 46 -106 56
-135 9 -30 31 -69 48 -88 47 -54 82 -64 223 -64 l124 0 0 -170 0 -170 -129 0
c-181 0 -230 -26 -270 -141 -10 -31 -35 -93 -55 -138 -20 -45 -36 -95 -36
-110 0 -53 31 -104 116 -188 46 -47 84 -89 84 -95 0 -6 -35 -47 -78 -92 -44
-44 -92 -96 -107 -113 -16 -18 -32 -33 -38 -33 -5 0 -51 38 -103 85 -140 127
-180 137 -305 77 -35 -17 -91 -40 -124 -51 -67 -24 -99 -44 -129 -85 -18 -24
-22 -46 -26 -169 l-5 -142 -167 -3 -168 -2 0 129 c0 182 -26 230 -146 272 -32
11 -92 36 -132 55 -78 36 -152 45 -195 23 -12 -6 -61 -50 -110 -97 -84 -84
-88 -86 -111 -72 -31 19 -216 197 -216 207 0 5 36 44 81 88 45 44 90 98 100
120 30 65 27 81 -39 225 -11 25 -28 67 -36 93 -20 61 -41 92 -80 120 -27 19
-47 23 -171 27 l-140 5 -3 173 -2 172 129 0 c91 0 139 4 164 15 44 18 90 73
107 128 8 23 31 82 52 130 61 142 54 171 -80 310 l-85 88 24 26 c63 70 202
203 213 203 6 0 43 -32 81 -71 39 -39 87 -82 107 -95 53 -34 117 -32 194 4 32
16 92 41 132 56 142 54 162 89 162 277 l0 129 170 0 170 0 0 -130z m-4039
-1084 c84 -35 122 -138 85 -227 -44 -106 -195 -132 -272 -47 -53 57 -66 118
-39 179 20 46 34 63 75 88 41 24 102 27 151 7z m7889 -7 c41 -25 55 -42 75
-88 37 -83 -7 -180 -98 -219 -133 -57 -270 92 -213 229 37 88 156 127 236 78z
m770 -3059 l0 -170 -4790 0 -4790 0 0 170 0 170 4790 0 4790 0 0 -170z m-3935
-1025 l0 -510 -855 0 -855 0 -3 500 c-1 275 0 506 3 513 3 10 180 12 857 10
l853 -3 0 -510z m1880 -1030 l0 -170 -2735 0 -2735 0 -3 160 c-1 87 0 165 2
172 4 11 512 13 2738 11 l2733 -3 0 -170z"/>
<path d="M1322 8747 c-115 -58 -121 -222 -12 -290 34 -22 43 -22 490 -27 l455
-5 3 -705 c2 -758 1 -740 54 -785 53 -46 40 -45 629 -45 560 0 561 0 600 22
54 30 94 110 84 167 -9 54 -42 101 -90 128 -40 23 -42 23 -487 23 l-448 0 0
699 c0 761 2 739 -57 792 -55 49 -49 49 -631 49 -545 -1 -547 -1 -590 -23z"/>
<path d="M8868 8757 c-38 -17 -67 -47 -89 -89 -18 -35 -19 -70 -19 -738 l0
-700 -447 0 c-445 0 -448 0 -487 -23 -59 -33 -79 -67 -84 -140 -3 -53 0 -67
20 -97 13 -19 39 -45 57 -57 l34 -23 567 0 567 0 33 23 c18 12 43 35 54 50 21
28 21 38 26 745 l5 717 455 5 c436 5 456 6 490 26 107 63 104 226 -6 290 l-41
24 -554 -1 c-403 0 -561 -4 -581 -12z"/>
<path d="M5600 6711 c-269 -37 -485 -216 -571 -471 -39 -115 -37 -312 3 -425
72 -205 223 -358 423 -430 130 -47 311 -47 450 0 11 3 54 23 95 43 97 48 220
167 276 267 134 242 112 541 -56 755 -19 25 -39 50 -45 55 -28 28 -123 105
-130 105 -4 0 -19 8 -33 18 -88 61 -284 100 -412 83z m177 -352 c78 -32 99
-44 138 -80 67 -61 105 -154 105 -252 0 -73 -13 -115 -58 -184 -142 -221 -478
-195 -591 46 -22 47 -26 70 -26 141 0 71 4 94 26 140 42 89 107 149 204 186
40 15 167 17 202 3z"/>
</g>
</svg>
