<?xml version="1.0" standalone="no"?>
<!DOCTYPE svg PUBLIC "-//W3C//DTD SVG 20010904//EN"
 "http://www.w3.org/TR/2001/REC-SVG-20010904/DTD/svg10.dtd">
<svg version="1.0" xmlns="http://www.w3.org/2000/svg"
 width="1072.000000pt" height="728.000000pt" viewBox="0 0 1072.000000 728.000000"
 preserveAspectRatio="xMidYMid meet">
<metadata>
Created by potrace 1.16, written by Peter Selinger 2001-2019
</metadata>
<g transform="translate(0.000000,728.000000) scale(0.100000,-0.100000)"
fill="#000000" stroke="none">
<path d="M3095 6525 c-5 -2 -22 -6 -37 -9 -37 -8 -95 -60 -118 -105 -11 -23
-22 -79 -29 -151 -29 -298 -54 -477 -71 -516 -26 -59 -81 -117 -137 -141 -252
-112 -297 -128 -368 -128 -50 1 -83 7 -115 22 -25 11 -144 100 -264 198 -121
97 -232 183 -247 191 -33 17 -126 19 -166 3 -15 -6 -110 -92 -210 -192 -148
-147 -185 -189 -198 -226 -37 -109 -35 -113 292 -518 50 -61 99 -133 109 -160
30 -77 24 -153 -18 -248 -20 -44 -51 -118 -69 -165 -59 -150 -142 -209 -314
-225 -231 -20 -496 -55 -522 -68 -39 -21 -79 -65 -97 -109 -23 -55 -23 -511 0
-566 18 -43 58 -88 97 -108 25 -14 308 -51 522 -70 170 -14 256 -75 314 -224
18 -47 49 -121 69 -165 60 -135 46 -244 -47 -355 -21 -25 -103 -127 -184 -227
-172 -215 -185 -245 -152 -344 13 -37 50 -79 198 -226 100 -100 195 -186 210
-192 40 -16 133 -14 166 3 15 8 126 94 247 191 120 98 239 187 264 198 32 15
65 21 115 22 71 0 129 -20 368 -127 56 -25 111 -83 137 -142 17 -39 42 -218
71 -516 7 -72 18 -128 29 -151 23 -44 80 -96 118 -106 15 -5 142 -8 282 -8
242 0 257 1 295 21 46 25 66 45 89 92 17 33 20 56 56 392 30 275 47 324 137
390 35 25 184 91 323 142 68 25 147 20 210 -12 24 -12 139 -99 257 -194 117
-94 228 -179 245 -189 21 -11 55 -17 93 -17 84 0 116 23 311 221 176 180 190
201 182 296 -6 64 -12 73 -233 347 -91 113 -159 206 -172 238 -31 73 -30 146
3 223 14 33 46 110 70 172 35 85 55 122 87 154 69 69 99 77 437 115 291 32
307 35 345 62 22 15 50 46 63 69 22 40 23 49 23 308 0 259 -1 268 -23 308 -13
23 -41 54 -63 69 -38 27 -54 30 -345 62 -338 38 -368 46 -437 115 -31 31 -52
69 -87 154 -25 61 -56 139 -70 172 -33 77 -34 151 -3 223 13 32 80 124 172
238 220 272 227 283 233 347 8 95 -6 116 -182 296 -195 198 -227 221 -311 221
-38 0 -72 -6 -93 -17 -17 -10 -128 -95 -245 -189 -118 -95 -233 -182 -257
-194 -63 -32 -142 -37 -210 -12 -139 51 -288 117 -323 142 -90 66 -107 115
-137 390 -45 424 -47 431 -150 486 -31 17 -62 19 -280 21 -135 1 -249 1 -255
-2z m493 -1375 c297 -54 548 -181 764 -388 300 -288 458 -657 458 -1067 0
-410 -159 -779 -458 -1067 -280 -268 -628 -408 -1018 -408 -506 0 -960 244
-1237 665 -71 109 -99 161 -143 277 -148 383 -125 840 60 1206 41 81 152 239
224 320 211 235 521 407 836 463 145 25 370 25 514 -1z"/>
<path d="M3149 4440 c-305 -75 -535 -320 -589 -627 -16 -88 -8 -263 15 -348
59 -213 223 -405 425 -499 310 -143 670 -74 903 173 375 398 236 1052 -268
1264 -137 58 -339 73 -486 37z"/>
<path d="M9710 5806 c-128 -34 -199 -171 -159 -306 13 -44 38 -8 -256 -359
l-160 -191 -1582 0 -1582 0 -3 -32 c-2 -18 -1 -59 0 -90 l4 -58 1623 0 1623 0
148 178 c82 97 191 228 244 289 l95 113 63 0 c106 0 174 42 218 135 14 29 24
68 24 95 0 101 -85 209 -182 229 -59 13 -61 13 -118 -3z m120 -121 c82 -42 79
-170 -6 -210 -47 -22 -94 -13 -133 26 -38 38 -48 86 -27 127 34 67 102 90 166
57z"/>
<path d="M9107 4405 c-90 -34 -142 -102 -155 -200 l-7 -57 -65 -38 c-36 -20
-121 -69 -189 -108 l-125 -72 -1008 0 -1009 0 3 -85 3 -86 1038 1 1037 0 103
59 c56 32 146 84 199 115 53 31 101 56 105 56 5 0 26 -9 48 -20 54 -27 144
-27 202 1 213 103 152 428 -84 445 -36 2 -72 -2 -96 -11z m159 -139 c30 -30
34 -41 34 -84 0 -40 -5 -54 -27 -77 -36 -35 -70 -48 -108 -40 -59 12 -95 59
-95 125 0 34 6 48 34 76 29 29 41 34 81 34 40 0 52 -5 81 -34z"/>
<path d="M8794 3091 c-37 -17 -114 -93 -114 -113 0 -4 -414 -8 -920 -8 l-920
0 0 -90 0 -90 919 0 c896 0 920 0 926 -19 3 -11 25 -37 50 -60 100 -92 238
-88 332 11 104 108 76 290 -56 362 -61 32 -154 36 -217 7z m164 -111 c19 -12
40 -37 49 -58 13 -32 14 -42 2 -77 -16 -46 -67 -85 -113 -85 -117 0 -160 155
-60 221 37 24 80 24 122 -1z"/>
<path d="M6044 2186 c-3 -7 -4 -48 -2 -92 l3 -79 1490 3 c820 1 1499 0 1511
-2 16 -4 365 -406 432 -497 10 -14 9 -28 -3 -74 -24 -94 2 -175 77 -239 50
-44 105 -60 174 -53 123 13 207 107 206 232 0 75 -11 104 -62 159 -48 52 -107
76 -189 77 l-56 0 -155 187 c-85 102 -195 232 -243 289 l-88 104 -1545 -1
c-1239 -1 -1546 -4 -1550 -14z m3736 -713 c56 -50 49 -147 -14 -189 -33 -21
-97 -20 -131 2 -30 19 -55 69 -55 106 2 91 131 143 200 81z"/>
</g>
</svg>
